<svg width="598" height="724" viewBox="0 0 598 724" fill="none" xmlns="http://www.w3.org/2000/svg">
<path d="M270 710L14 566.5L15 277.5L157 198L271 133L522.5 272.5L528 280V566.5L273 710H270Z" fill="black" stroke="black" stroke-width="27" stroke-linejoin="round"/>
<path d="M264 426V707L14 566.5V285.623L264 426Z" fill="#498D96"/>
<path d="M278 426L528 285.5V566.5L278 707V426Z" fill="#DD5F57"/>
<path d="M21.5 274L271.5 414L388.5 348L142 206L21.5 274Z" fill="#498D96"/>
<path d="M264 130.023L533.864 281L590 152.256L323.226 8L264 130.023Z" fill="#DD5F57" stroke="black" stroke-width="15" stroke-linejoin="round"/>
<path d="M157 198L271 133L520 273.5C481.667 296 403 340 403 340C401.4 339.2 238.333 245 157 198Z" fill="black"/>
<path d="M183 496.242C182.479 507.546 169 516 165.5 520.5C162 525 142.584 541.101 132.455 545.86C122.4 550.62 110.893 553 97.9327 553C76.5565 553 59.7237 546.046 47.4342 532.139C35.1447 518.232 29 498.598 29 473.237V465.205C29 449.29 31.7558 435.382 37.2675 423.483C42.8536 411.509 50.8604 402.287 61.2878 395.817C71.7152 389.272 83.7812 386 97.4859 386C117.223 386 133.088 391.206 145.08 401.618C157.071 411.955 163.886 426.235 165.525 444.456H126.422C126.124 434.564 123.629 427.462 118.937 423.148C114.244 418.835 107.094 416.678 97.4859 416.678C87.7288 416.678 80.5785 420.322 76.0351 427.611C71.4918 434.899 69.1084 446.538 68.8849 462.528V474.018C68.8849 491.346 71.0449 503.729 75.3648 511.166C79.7592 518.603 87.2819 522.322 97.9327 522.322C106.945 522.322 113.835 520.202 118.601 515.963C123.368 511.724 125.901 504.994 126.199 495.772L183 496.242Z" fill="#FBE8A5"/>
<path d="M264 496V593.495C264 604.544 261.654 614.126 256.962 622.243C252.269 630.29 245.537 636.429 236.765 640.657C227.992 644.886 217.622 647 205.653 647C187.564 647 173.317 642.294 162.913 632.882C152.508 623.47 147.204 610.58 147 594.211V496H183.008V594.928C183.416 611.228 190.964 619.378 205.653 619.378C213.065 619.378 218.676 617.332 222.484 613.24C226.292 609.148 228.196 602.498 228.196 593.291V496H264Z" fill="#FBE8A5"/>
<path d="M318.123 605.679V662H278V496H344.414C357.141 496 368.382 498.356 378.136 503.069C387.967 507.705 395.549 514.356 400.884 523.021C406.295 531.609 409 541.376 409 552.321C409 568.511 403.17 581.47 391.51 591.199C379.927 600.852 364 605.679 343.729 605.679H318.123ZM318.123 574.782H344.414C352.188 574.782 358.094 572.843 362.133 568.967C366.248 565.091 368.305 559.618 368.305 552.549C368.305 544.797 366.21 538.602 362.018 533.966C357.827 529.329 352.111 526.973 344.872 526.897H318.123V574.782Z" fill="#FBE8A5"/>
<path d="M461.641 505.478C461.641 499.61 459.533 495.038 455.317 491.761C451.178 488.485 443.857 485.094 433.355 481.588C422.854 478.083 414.268 474.692 407.599 471.415C385.906 460.823 375.059 446.268 375.059 427.751C375.059 418.53 377.742 410.414 383.108 403.404C388.551 396.317 396.216 390.83 406.105 386.944C415.993 382.981 427.108 381 439.449 381C451.484 381 462.254 383.134 471.76 387.401C481.341 391.668 488.777 397.765 494.066 405.69C499.355 413.539 502 422.531 502 432.666H461.756C461.756 425.884 459.648 420.626 455.432 416.892C451.293 413.158 445.659 411.291 438.53 411.291C431.324 411.291 425.613 412.891 421.397 416.092C417.258 419.216 415.188 423.217 415.188 428.094C415.188 432.361 417.488 436.247 422.087 439.753C426.686 443.182 434.774 446.763 446.348 450.497C457.923 454.155 467.429 458.118 474.864 462.385C492.955 472.749 502 487.037 502 505.249C502 519.804 496.481 531.235 485.443 539.541C474.404 547.847 459.265 552 440.024 552C426.456 552 414.153 549.6 403.115 544.799C392.153 539.922 383.875 533.292 378.279 524.91C372.76 516.451 334 506.735 334 495.762H410.474C410.474 504.678 412.774 511.269 417.373 515.537C422.049 519.728 429.599 521.824 440.024 521.824C446.693 521.824 451.944 520.414 455.777 517.594C459.686 514.699 461.641 510.66 461.641 505.478Z" fill="#FBE8A5"/>
<path d="M421.5 209.5L396.5 85L327 165.5L421.5 209.5Z" fill="black" stroke="black" stroke-width="6" stroke-linejoin="round"/>
<circle cx="348" cy="216" r="41" fill="#FBE8A5"/>
<rect x="344" y="194" width="9" height="45" rx="4.5" fill="black"/>
<path d="M195 206.5L220 82L289.5 162.5L195 206.5Z" fill="black" stroke="black" stroke-width="6" stroke-linejoin="round"/>
<circle cx="258" cy="216" r="41" fill="#FBE8A5"/>
<rect x="254" y="194" width="9" height="45" rx="4.5" fill="black"/>
</svg>
