<svg width="758" height="724" viewBox="0 0 758 724" fill="none" xmlns="http://www.w3.org/2000/svg">
<path d="M369 710L113 566.5L114 277.5L256 198L370 133L621.5 272.5L627 280V566.5L372 710H369Z" fill="black" stroke="black" stroke-width="27" stroke-linejoin="round"/>
<path d="M363 426V707L113 566.5V285.623L363 426Z" fill="#2B8A97"/>
<path d="M377 426L627 285.5V566.5L377 707V426Z" fill="#DD5F57"/>
<path d="M120.5 274L370.5 414L487.5 348L241 206L120.5 274Z" fill="#2B8A97"/>
<path d="M363 130.023L632.864 281L689 152.256L422.226 8L363 130.023Z" fill="#DD5F57" stroke="black" stroke-width="15" stroke-linejoin="round"/>
<path d="M256 198L370 133L619 273.5C580.667 296 502 340 502 340C500.4 339.2 337.333 245 256 198Z" fill="black"/>
<path d="M282 477C281.479 488.304 268 516 264.5 520.5C261 525 241.584 541.101 231.455 545.86C221.4 550.62 209.893 553 196.933 553C175.557 553 158.724 546.046 146.434 532.139C134.145 518.232 128 498.598 128 473.237V465.205C128 449.29 130.756 435.382 136.267 423.483C141.854 411.509 149.86 402.287 160.288 395.817C170.715 389.272 182.781 386 196.486 386C216.223 386 232.088 391.206 244.08 401.618C256.071 411.955 262.886 426.235 264.525 444.456H225.422C225.124 434.564 222.629 427.462 217.937 423.148C213.244 418.835 206.094 416.678 196.486 416.678C186.729 416.678 179.579 420.322 175.035 427.611C170.492 434.899 168.108 446.538 167.885 462.528V474.018C167.885 491.346 170.045 503.729 174.365 511.166C178.759 518.603 186.282 522.322 196.933 522.322C205.945 522.322 212.835 520.202 217.601 515.963C222.368 511.724 234.5 503.5 234.5 477H282Z" fill="#FBE8A5"/>
<path d="M363 477V574.495C363 585.544 360.654 595.126 355.962 603.243C351.269 611.29 344.537 617.429 335.765 621.657C326.992 625.886 316.622 628 304.653 628C286.564 628 272.317 623.294 261.913 613.882C251.508 604.47 246.204 591.58 246 575.211V477H282.008V575.928C282.416 592.228 289.964 600.378 304.653 600.378C312.065 600.378 317.676 598.332 321.484 594.24C325.292 590.148 327.196 583.498 327.196 574.291V477H363Z" fill="#FBE8A5"/>
<path d="M417.123 586.679V643H377V477H443.414C456.141 477 467.382 479.356 477.136 484.069C486.967 488.705 494.549 495.356 499.884 504.021C505.295 512.609 508 522.376 508 533.321C508 549.511 502.17 562.47 490.51 572.199C478.927 581.852 463 586.679 442.729 586.679H417.123ZM417.123 555.782H443.414C451.188 555.782 457.094 553.843 461.133 549.967C465.248 546.091 467.305 540.618 467.305 533.549C467.305 525.797 465.21 519.602 461.018 514.966C456.827 510.329 451.111 507.973 443.872 507.897H417.123V555.782Z" fill="#FBE8A5"/>
<path d="M560.641 510.478C560.641 504.61 558.533 500.038 554.317 496.761C550.178 493.485 542.857 490.094 532.355 486.588C521.854 483.083 513.268 479.692 506.599 476.415C484.906 465.823 474.059 451.268 474.059 432.751C474.059 423.53 476.742 415.414 482.108 408.404C487.551 401.317 495.216 395.83 505.105 391.944C514.993 387.981 526.108 386 538.449 386C550.484 386 561.254 388.134 570.76 392.401C580.341 396.668 587.777 402.765 593.066 410.69C598.355 418.539 601 427.531 601 437.666H560.756C560.756 430.884 558.648 425.626 554.432 421.892C550.293 418.158 544.659 416.291 537.53 416.291C530.324 416.291 524.613 417.891 520.397 421.092C516.258 424.216 514.188 428.217 514.188 433.094C514.188 437.361 516.488 441.247 521.087 444.753C525.686 448.182 533.774 451.763 545.348 455.497C556.923 459.155 566.429 463.118 573.864 467.385C591.955 477.749 601 492.037 601 510.249C601 524.804 595.481 536.235 584.443 544.541C573.404 552.847 558.265 557 539.024 557C525.456 557 513.153 554.6 502.115 549.799C491.153 544.922 482.875 538.292 477.279 529.91C471.76 521.451 454.5 504.973 454.5 494L467.5 481.5C500.5 492 495.894 505.628 514.5 519.5C524.312 526.816 531.5 526.824 539.024 526.824C545.693 526.824 550.944 525.414 554.777 522.594C558.686 519.699 560.641 515.66 560.641 510.478Z" fill="#FBE8A5"/>
<path d="M520.5 209.5L495.5 85L426 165.5L520.5 209.5Z" fill="black" stroke="black" stroke-width="6" stroke-linejoin="round"/>
<circle cx="447" cy="216" r="41" fill="#FBE8A5"/>
<rect x="443" y="194" width="9" height="45" rx="4.5" fill="black"/>
<path d="M294 206.5L319 82L388.5 162.5L294 206.5Z" fill="black" stroke="black" stroke-width="6" stroke-linejoin="round"/>
<circle cx="357" cy="216" r="41" fill="#FBE8A5"/>
<rect x="353" y="194" width="9" height="45" rx="4.5" fill="black"/>
<path d="M640 382H713L758 452L713 521H640V382Z" fill="black"/>
<path d="M0 381H100V448.5V520H0L33 448.5L0 381Z" fill="black"/>
</svg>
